<svg id="Capa_1" enable-background="new 0 0 512 512" height="512" viewBox="0 0 512 512" width="512" xmlns="http://www.w3.org/2000/svg"><g><g><g fill="#544f57"><path d="m439.217 316.358h-20.939c-3.414 0-6.181-2.767-6.181-6.181v-237.394c0-3.414 2.767-6.181 6.181-6.181h20.939c3.414 0 6.181 2.767 6.181 6.181v237.394c0 3.413-2.767 6.181-6.181 6.181z"/><path d="m93.721 316.358h-20.938c-3.414 0-6.181-2.767-6.181-6.181v-237.394c0-3.414 2.767-6.181 6.181-6.181h20.939c3.414 0 6.181 2.767 6.181 6.181v237.394c-.001 3.413-2.768 6.181-6.182 6.181z"/><path d="m266.469 262.244h-20.939c-3.414 0-6.181-2.767-6.181-6.181v-183.28c0-3.414 2.767-6.181 6.181-6.181h20.939c3.414 0 6.181 2.767 6.181 6.181v183.28c0 3.414-2.767 6.181-6.181 6.181z"/></g><g fill="#dd636e"><path d="m428.748 6.181v20.939c0 3.414 2.767 6.181 6.181 6.181h43.77v43.77c0 3.414 2.767 6.181 6.181 6.181h20.939c3.414 0 6.181-2.767 6.181-6.181v-70.89c0-3.414-2.767-6.181-6.181-6.181h-70.89c-3.414 0-6.181 2.767-6.181 6.181z"/><path d="m83.252 6.181v20.939c0 3.414-2.767 6.181-6.181 6.181h-43.77v43.77c0 3.414-2.767 6.181-6.181 6.181h-20.939c-3.414 0-6.181-2.767-6.181-6.181v-70.89c0-3.414 2.767-6.181 6.181-6.181h70.89c3.414 0 6.181 2.767 6.181 6.181z"/><path d="m428.748 376.778v-20.938c0-3.414 2.767-6.181 6.181-6.181h43.77v-43.77c0-3.414 2.767-6.181 6.181-6.181h20.939c3.414 0 6.181 2.767 6.181 6.181v70.89c0 3.414-2.767 6.181-6.181 6.181h-70.89c-3.414-.001-6.181-2.768-6.181-6.182z"/><path d="m83.252 376.778v-20.938c0-3.414-2.767-6.181-6.181-6.181h-43.77v-43.77c0-3.414-2.767-6.181-6.181-6.181h-20.939c-3.414 0-6.181 2.767-6.181 6.181v70.89c0 3.414 2.767 6.181 6.181 6.181h70.89c3.414-.001 6.181-2.768 6.181-6.182z"/></g></g><g><path d="m307.509 254.352c-4.267 0-7.726-3.459-7.726-7.726v-172.298c0-4.268 3.459-7.726 7.726-7.726s7.726 3.459 7.726 7.726v172.298c0 4.267-3.459 7.726-7.726 7.726z" fill="#544f57"/></g><g><path d="m342.374 269.97c-4.267 0-7.726-3.459-7.726-7.726v-187.916c0-4.268 3.459-7.726 7.726-7.726s7.726 3.459 7.726 7.726v187.915c0 4.268-3.459 7.727-7.726 7.727z" fill="#544f57"/></g><g><path d="m377.236 269.97c-4.267 0-7.726-3.459-7.726-7.726v-187.916c0-4.268 3.459-7.726 7.726-7.726s7.726 3.459 7.726 7.726v187.915c0 4.268-3.459 7.727-7.726 7.727z" fill="#544f57"/></g><g><path d="m204.491 254.352c-4.267 0-7.726-3.459-7.726-7.726v-172.298c0-4.268 3.459-7.726 7.726-7.726s7.726 3.459 7.726 7.726v172.298c0 4.267-3.459 7.726-7.726 7.726z" fill="#544f57"/></g><g><path d="m169.626 269.97c-4.267 0-7.726-3.459-7.726-7.726v-187.916c0-4.268 3.459-7.726 7.726-7.726s7.726 3.459 7.726 7.726v187.915c.001 4.268-3.459 7.727-7.726 7.727z" fill="#544f57"/></g><g><path d="m134.764 269.97c-4.267 0-7.726-3.459-7.726-7.726v-187.916c0-4.268 3.459-7.726 7.726-7.726s7.726 3.459 7.726 7.726v187.915c0 4.268-3.459 7.727-7.726 7.727z" fill="#544f57"/></g><g><path d="m323.385 440.287h62.439v37.463h-62.439z" fill="#2b4d66" transform="matrix(.707 -.707 .707 .707 -220.714 385.186)"/><path d="m421.641 512h-36.279c-2.732 0-5.353-1.085-7.284-3.017l-23.473-23.473 26.491-26.491 44.188 44.188c3.244 3.245.946 8.793-3.643 8.793z" fill="#4a80aa"/><circle cx="256" cy="360.415" fill="#eab14d" r="124.878"/><path d="m331.519 260.961c15.95 20.973 25.424 47.138 25.424 75.519 0 68.968-55.91 124.878-124.878 124.878-28.381 0-54.547-9.474-75.519-25.424 22.809 29.992 58.867 49.359 99.454 49.359 68.968 0 124.878-55.91 124.878-124.878 0-40.587-19.367-76.645-49.359-99.454z" fill="#e7a52e"/><circle cx="256" cy="360.415" fill="#e4f6ff" r="91.577"/><path d="m311.302 287.422c11.66 15.367 18.584 34.525 18.584 55.302 0 50.577-41 91.577-91.577 91.577-20.778 0-39.935-6.924-55.302-18.584 16.723 22.039 43.194 36.275 72.993 36.275 50.577 0 91.577-41.001 91.577-91.577 0-29.799-14.236-56.27-36.275-72.993z" fill="#d3effb"/></g></g></svg>